<svg width="157" height="61" viewBox="0 0 157 61" fill="none" xmlns="http://www.w3.org/2000/svg">
<path d="M35.4598 41.851H4.24853C1.90175 41.851 0 39.9515 0 37.6076V6.43382C0 4.09282 1.90175 2.19336 4.24853 2.19336H35.4598C37.8066 2.19336 39.7084 4.09282 39.7084 6.43678V37.6076C39.7084 39.9515 37.8066 41.851 35.4598 41.851Z" fill="white"/>
<path d="M28.4731 10.3516L24.4115 15.1343C24.4115 15.1343 18.2671 15.1313 17.3118 15.1313C16.5226 15.1313 15.9263 15.2973 15.5287 15.6292C15.1312 15.9611 14.9294 16.37 14.9294 16.85C14.9294 17.1967 15.0956 17.5109 15.4279 17.7894C15.7453 18.0768 16.5048 18.3465 17.7005 18.5984C20.6584 19.2384 22.7797 19.8815 24.0584 20.5334C25.3431 21.1883 26.2717 21.9973 26.8562 22.9633C27.4407 23.9293 27.7314 25.0139 27.7314 26.2081C27.7314 27.6127 27.3428 28.9076 26.5654 30.093C25.7911 31.2783 24.7022 32.1791 23.3078 32.7925C21.9134 33.4029 20.1541 33.7111 18.0328 33.7111C14.3064 33.7111 11.7252 32.997 10.2893 31.5627C8.85628 30.1256 8.04336 28.3002 7.85645 26.0896L14.2945 25.6895C14.434 26.7356 14.7188 27.5327 15.149 28.0809C15.8432 28.9699 16.8401 29.4114 18.1366 29.4114C19.1038 29.4114 19.8455 29.1832 20.3706 28.7328C20.8928 28.2794 21.1539 27.752 21.1539 27.1563C21.1539 26.5607 20.9047 26.0807 20.4122 25.6302C19.9137 25.1828 18.7567 24.759 16.941 24.362C13.9711 23.6952 11.8528 22.8062 10.5889 21.7009C9.31317 20.5956 8.6753 19.1851 8.6753 17.4723C8.6753 16.3433 9.00165 15.2795 9.65733 14.2779C10.31 13.2763 11.3662 12.0643 12.6776 11.4865C13.986 10.9146 15.6771 10.3634 17.9616 10.3634H28.482L28.4731 10.3516Z" fill="#1D1D1B"/>
<path d="M30.253 10.3526L26.1943 15.1324C29.1137 15.1324 30.342 15.1324 30.342 15.1324L34.4036 10.3496H30.253V10.3526Z" fill="#00ADBD"/>
<path d="M60.8142 16.5121C60.1497 16.9506 58.4823 17.7952 55.7943 17.7952C52.335 17.7952 50.7744 15.9194 50.7744 13.6851C50.7744 11.6553 52.1659 9.82394 55.5184 9.82394C56.5776 9.82394 57.4439 9.95433 58.2776 10.1914V9.32315C58.2776 8.12302 57.6961 7.48295 56.0524 7.48295C55.2306 7.48295 54.483 7.68445 53.8036 7.90966C53.4594 8.00449 53.0767 8.15858 52.8512 8.14673C52.5783 8.12302 52.424 8.01634 52.0413 7.15995C51.792 6.60286 51.6615 6.25615 51.6615 6.03094C51.6615 5.77017 51.8514 5.54496 52.6495 5.23382C53.6018 4.86637 54.7648 4.59375 56.0495 4.59375C59.5118 4.59375 61.378 6.07835 61.378 9.42686V15.3771C61.378 15.9579 61.2474 16.198 60.8083 16.5061L60.8142 16.5121ZM58.2806 14.5652V12.3664C57.4706 12.1294 56.7942 11.999 55.9486 11.999C54.5097 11.999 53.8421 12.725 53.8421 13.614C53.8421 14.6956 54.6877 15.2171 55.9723 15.2171C57.0196 15.2171 57.8622 14.8497 58.2806 14.5622V14.5652Z" fill="white"/>
<path d="M75.0755 7.51939C75.2417 7.9461 75.3247 8.31651 75.3247 8.58913C75.3247 8.95658 75.028 9.0514 74.2062 9.33884C73.5535 9.5759 73.1233 9.73 72.8978 9.73C72.6012 9.73 72.5537 9.44552 72.3163 9.03955C71.8179 8.10019 71.008 7.69718 69.9844 7.69718C68.4624 7.69718 67.5812 8.60098 67.4507 9.94335C67.4032 10.5597 67.3914 11.6887 67.4507 12.3081C67.5931 13.7689 68.4624 14.6965 69.9844 14.6965C71.0554 14.6965 71.8149 14.2697 72.3282 13.3185C72.5062 12.9985 72.613 12.631 72.9216 12.631C73.1233 12.631 73.3013 12.6785 74.1588 12.9866C75.2061 13.3659 75.3841 13.4608 75.3841 13.7838C75.3841 14.009 75.2535 14.4505 75.0518 14.9128C74.5652 16.0062 73.1975 17.799 69.8895 17.799C66.7624 17.799 64.466 15.6003 64.2406 12.797C64.1575 11.8339 64.1694 10.4086 64.2406 9.46034C64.4186 6.60966 66.798 4.60352 69.9725 4.60352C73.1471 4.60352 74.6453 6.34889 75.0755 7.52531V7.51939Z" fill="white"/>
<path d="M87.3494 16.5121C86.6848 16.9506 85.0175 17.7952 82.3295 17.7952C78.8672 17.7952 77.3096 15.9194 77.3096 13.6851C77.3096 11.6553 78.701 9.82394 82.0536 9.82394C83.1127 9.82394 83.9791 9.95433 84.8127 10.1914V9.32315C84.8127 8.12302 84.2312 7.48295 82.5876 7.48295C81.7658 7.48295 81.0181 7.68445 80.3387 7.90966C79.9946 8.00449 79.6118 8.15858 79.3864 8.14673C79.1134 8.12302 78.9591 8.01634 78.5764 7.15995C78.3272 6.60286 78.1967 6.25615 78.1967 6.03094C78.1967 5.77017 78.3865 5.54496 79.1846 5.23382C80.137 4.86637 81.303 4.59375 82.5846 4.59375C86.044 4.59375 87.9131 6.07835 87.9131 9.42686V15.3771C87.9131 15.9579 87.7826 16.198 87.3435 16.5061L87.3494 16.5121ZM84.8157 14.5652V12.3664C84.0058 12.1294 83.3293 11.999 82.4838 11.999C81.0448 11.999 80.3803 12.725 80.3803 13.614C80.3803 14.6956 81.2258 15.2171 82.5075 15.2171C83.5548 15.2171 84.3974 14.8497 84.8157 14.5622V14.5652Z" fill="white"/>
<path d="M95.9863 4.59654C96.9268 4.59654 98.0304 4.84545 98.7455 5.15363V2.2348C98.7455 1.11863 99.2884 0.560547 100.374 0.560547C101.46 0.560547 102.003 1.11863 102.003 2.2348V15.1932C102.003 15.7266 101.861 16.0259 101.433 16.3222C100.757 16.8082 98.8641 17.795 96.4135 17.795C93.1084 17.795 91.0257 15.7296 90.7765 12.8167C90.7053 11.984 90.6815 10.286 90.7765 9.44447C91.0376 6.49897 92.8325 4.5995 95.9863 4.5995V4.59654ZM96.4847 14.6332C97.3184 14.6332 98.3627 14.2183 98.7455 13.9101V8.31546C98.342 8.05469 97.3303 7.69909 96.2948 7.69909C94.8084 7.69909 94.0934 8.50807 94.0104 9.92156C93.951 10.4787 93.951 11.6788 94.0104 12.3218C94.1053 13.8301 94.9627 14.6391 96.4847 14.6391V14.6332Z" fill="white"/>
<path d="M114.505 12.3792H108.105V12.6162C108.105 14.1245 109.295 14.9335 110.864 14.9335C111.793 14.9335 112.612 14.7557 113.327 14.4712C113.742 14.3053 114.066 14.1512 114.303 14.1512C114.635 14.1512 114.801 14.4001 115.172 15.2328C115.433 15.8018 115.493 16.0655 115.493 16.2433C115.493 16.4804 115.35 16.67 114.671 16.993C113.825 17.3842 112.398 17.802 110.888 17.802C107.429 17.802 105.287 15.6892 105.026 12.7407C104.966 11.8132 104.966 10.3997 105.037 9.65295C105.298 6.56521 107.524 4.60352 110.639 4.60352C113.754 4.60352 116.122 6.74004 116.122 10.1034V10.7197C116.122 12.2162 115.861 12.3821 114.505 12.3821V12.3792ZM113.173 9.87223C113.22 8.31651 112.256 7.28232 110.686 7.28232C108.903 7.28232 108.093 8.42319 108.105 10.1686H112.897C113.079 10.1686 113.17 10.0698 113.17 9.87223H113.173Z" fill="white"/>
<path d="M136.186 9.7044V15.9895C136.186 17.0425 135.644 17.569 134.558 17.569C133.472 17.569 132.933 17.0425 132.941 15.9895V9.88516C132.941 8.49538 132.395 7.78123 131.051 7.78123C130.3 7.78123 129.624 8.11312 129.149 8.49538C129.185 8.91024 129.208 9.33992 129.208 9.80219V15.9895C129.208 17.0425 128.666 17.569 127.58 17.569C126.502 17.569 125.963 17.0425 125.963 15.9895V9.8496C125.963 8.42427 125.322 7.78123 124.049 7.78123C123.334 7.78123 122.598 8.12497 122.219 8.36204V15.9866C122.219 17.0395 121.672 17.566 120.578 17.566C119.5 17.566 118.961 17.0395 118.961 15.9866V7.05523C118.961 6.47442 119.127 6.18699 119.531 5.89066C120.305 5.35727 122.112 4.5957 123.919 4.5957C125.405 4.5957 126.464 5.03427 127.342 5.91436C128.449 5.14095 129.793 4.5957 131.256 4.5957C134.742 4.5957 136.192 6.45961 136.192 9.7044H136.186Z" fill="white"/>
<path d="M141.1 3.4559C139.967 3.4559 139.4 2.87411 139.4 1.71052C139.4 0.546942 139.967 -0.0229963 141.1 0.000710005C142.234 0.0244163 142.804 0.594354 142.812 1.71052C142.812 2.87411 142.242 3.4559 141.1 3.4559ZM142.741 6.48437V16.0113C142.741 17.0485 142.194 17.5671 141.1 17.5671C140.03 17.5671 139.495 17.0485 139.495 16.0113V6.48734C139.495 5.37907 140.03 4.82493 141.1 4.82493C142.194 4.82493 142.741 5.37907 142.741 6.48734V6.48437Z" fill="white"/>
<path d="M156.691 7.51939C156.857 7.9461 156.94 8.31651 156.94 8.58913C156.94 8.95658 156.643 9.0514 155.821 9.33884C155.166 9.5759 154.739 9.73 154.513 9.73C154.216 9.73 154.169 9.44552 153.932 9.03955C153.433 8.10019 152.623 7.69718 151.6 7.69718C150.078 7.69718 149.196 8.60098 149.066 9.94335C149.018 10.5597 149.007 11.6887 149.066 12.3081C149.208 13.7689 150.078 14.6965 151.6 14.6965C152.671 14.6965 153.43 14.2697 153.943 13.3185C154.121 12.9985 154.228 12.631 154.537 12.631C154.739 12.631 154.917 12.6785 155.774 12.9866C156.821 13.3659 156.999 13.4608 156.999 13.7838C156.999 14.009 156.869 14.4505 156.667 14.9128C156.18 16.0062 154.813 17.799 151.505 17.799C148.378 17.799 146.081 15.6003 145.856 12.797C145.773 11.8339 145.785 10.4086 145.856 9.46034C146.034 6.60966 148.413 4.60352 151.588 4.60352C154.762 4.60352 156.261 6.34889 156.691 7.52531V7.51939Z" fill="white"/>
<path d="M59.6955 27.9503C60.0871 28.2703 60.2176 28.46 60.2176 28.7C60.2176 28.9489 60.1108 29.1148 59.6005 29.7816C59.1258 30.3979 58.9597 30.5906 58.66 30.5906C58.3871 30.5906 58.1972 30.4246 57.7314 30.1994C57.1736 29.9149 56.4942 29.7134 55.7703 29.7134C54.6043 29.7134 54.0584 30.1401 54.0584 30.7832C54.0584 31.2929 54.4382 31.5921 55.4855 31.8411C56.0195 31.9714 56.7345 32.1137 57.0906 32.1967C59.553 32.7893 60.719 33.9539 60.719 35.9867C60.719 38.5173 58.4939 40.0256 55.7703 40.0256C53.5689 40.0256 52.1774 39.3826 51.1687 38.6477C50.8127 38.3869 50.5635 38.1617 50.5635 37.8624C50.5635 37.6491 50.6347 37.495 51.145 36.8283C51.6434 36.1763 51.8333 35.9719 52.1329 35.9719C52.3822 35.9719 52.6314 36.1734 52.9666 36.3749C53.7172 36.8609 54.6666 37.1839 55.8089 37.1839C57.0223 37.1839 57.5801 36.686 57.5801 36.0311C57.5801 35.5333 57.2122 35.1748 56.2124 34.9377C55.5597 34.7836 55.1532 34.7006 54.4056 34.5228C52.5157 34.0606 50.9818 32.9315 50.9818 30.8276C50.9818 28.297 53.1713 26.8242 55.9424 26.8242C57.3576 26.8242 58.8677 27.2509 59.7014 27.9532L59.6955 27.9503Z" fill="white"/>
<path d="M69.4973 26.8222C72.5294 26.8222 74.3243 28.6268 74.3243 32.0257V38.2012C74.3243 39.262 73.7735 39.7924 72.6718 39.7924C71.6097 39.7924 71.0786 39.262 71.0786 38.2012V32.2035C71.0786 30.7663 70.2449 30.0047 68.9603 30.0047C67.9723 30.0047 67.0704 30.4907 66.569 31.0271V38.2367C66.569 39.2739 66.03 39.7924 64.952 39.7924C63.8741 39.7924 63.3312 39.2739 63.3232 38.2367V24.4693C63.3232 23.3452 63.8622 22.7832 64.9402 22.7832C66.026 22.7832 66.569 23.3452 66.569 24.4693V27.7348C67.0793 27.2963 68.2334 26.8192 69.4943 26.8192L69.4973 26.8222Z" fill="white"/>
<path d="M88.6226 31.7285C88.7175 32.6915 88.7175 34.1524 88.6226 35.1125C88.3615 37.9513 86.0533 40.0168 82.9025 40.0168C79.7517 40.0168 77.4553 37.9513 77.1943 35.1125C77.0993 34.1613 77.0993 32.7123 77.1943 31.7522C77.4553 28.8778 79.7635 26.8242 82.9025 26.8242C86.0414 26.8242 88.3615 28.8659 88.6226 31.7285ZM80.4044 32.2263C80.3451 32.9997 80.3451 33.7939 80.4044 34.6028C80.5349 35.9808 81.4042 36.9083 82.9025 36.9083C84.4007 36.9083 85.2819 35.9808 85.4124 34.6028C85.4718 33.7939 85.4718 33.0116 85.4124 32.2381C85.2819 30.8602 84.4007 29.9327 82.9025 29.9327C81.4042 29.9327 80.5349 30.8602 80.4044 32.2263Z" fill="white"/>
<path d="M102.872 31.6583C102.967 32.6451 102.955 34.189 102.872 35.1521C102.646 38.0027 100.73 40.0207 97.6145 40.0207C96.674 40.0207 95.606 39.7718 94.9265 39.4518V42.8003C94.9265 43.9086 94.3836 44.4627 93.2977 44.4627C92.2119 44.4627 91.6689 43.9086 91.6689 42.8003V29.1633C91.6689 28.8077 91.7639 28.5706 92.0724 28.3543C92.8586 27.7972 94.7485 26.8223 97.1992 26.8223C100.35 26.8223 102.611 28.8047 102.872 31.6554V31.6583ZM94.9265 30.6242V36.3374C95.3182 36.5863 96.2824 36.9182 97.2704 36.9182C98.7449 36.9182 99.543 36.0736 99.6498 34.6483C99.7091 33.7919 99.7091 32.9503 99.6498 32.2362C99.5311 30.8701 98.6855 29.9189 97.1636 29.9189C96.3773 29.9189 95.3686 30.2745 94.9265 30.6212V30.6242Z" fill="white"/>
<path d="M100.639 50.5098L99.624 51.704C99.624 51.704 96.6898 51.704 96.4524 51.704C96.2566 51.704 96.1053 51.7455 96.0074 51.8284C95.9095 51.9114 95.8591 52.0121 95.8591 52.1336C95.8591 52.2196 95.9006 52.2996 95.9837 52.3677C96.0638 52.4389 96.2536 52.507 96.5503 52.5692C97.2891 52.7293 97.8172 52.8893 98.1376 53.0523C98.458 53.2152 98.6894 53.4167 98.8348 53.6597C98.9802 53.8998 99.0544 54.1724 99.0544 54.4687C99.0544 54.8184 98.9565 55.1414 98.7636 55.4377C98.5708 55.734 98.2978 55.9592 97.9507 56.1104C97.6036 56.2645 97.1645 56.3385 96.6334 56.3385C95.7048 56.3385 95.058 56.1607 94.699 55.8022C94.34 55.4436 94.1383 54.9873 94.0908 54.4361L95.6988 54.3354C95.7345 54.5961 95.8057 54.7947 95.9125 54.931C96.0845 55.1532 96.3338 55.2629 96.6571 55.2629C96.8975 55.2629 97.0844 55.2066 97.2149 55.094C97.3455 54.9814 97.4107 54.848 97.4107 54.6998C97.4107 54.5517 97.3484 54.4332 97.2238 54.3205C97.0992 54.2079 96.8114 54.1042 96.3575 54.0035C95.6158 53.8375 95.0877 53.6153 94.7732 53.3397C94.4557 53.0641 94.2955 52.7115 94.2955 52.2848C94.2955 52.0033 94.3756 51.7366 94.5418 51.4877C94.705 51.2387 94.969 50.9335 95.2954 50.7913C95.6217 50.649 96.043 50.5098 96.6156 50.5098H100.642H100.639Z" fill="white"/>
<path d="M101.181 51.7168H99.6621V56.2447H101.181V51.7168Z" fill="white"/>
<path d="M104.71 52.2832H106.134V56.1977C106.137 56.4466 106.083 56.6837 105.98 56.9089C105.873 57.1341 105.733 57.3149 105.558 57.4541C105.38 57.5934 105.161 57.6942 104.888 57.7564C104.618 57.8186 104.309 57.8512 103.962 57.8512C103.164 57.8512 102.618 57.7327 102.321 57.4927C102.025 57.2556 101.876 56.9356 101.876 56.5355C101.876 56.4851 101.876 56.4199 101.885 56.334L103.36 56.5029C103.395 56.6392 103.455 56.734 103.532 56.7844C103.642 56.8615 103.784 56.9 103.953 56.9C104.173 56.9 104.336 56.8437 104.443 56.7252C104.549 56.6096 104.606 56.4051 104.606 56.1147V55.5161C104.458 55.691 104.306 55.8214 104.158 55.9014C103.923 56.0258 103.671 56.0881 103.401 56.0881C102.87 56.0881 102.443 55.8569 102.117 55.3946C101.885 55.0657 101.77 54.6331 101.77 54.0938C101.77 53.4774 101.918 53.0062 102.218 52.6832C102.517 52.3602 102.906 52.1973 103.389 52.1973C103.698 52.1973 103.953 52.2506 104.152 52.3543C104.354 52.458 104.541 52.6299 104.713 52.8729V52.2891L104.71 52.2832ZM103.283 54.2034C103.283 54.4908 103.345 54.7012 103.467 54.8405C103.588 54.9798 103.748 55.0479 103.947 55.0479C104.137 55.0479 104.294 54.9768 104.422 54.8316C104.549 54.6894 104.615 54.4731 104.615 54.1856C104.615 53.8982 104.547 53.6759 104.413 53.5219C104.28 53.3678 104.116 53.2907 103.921 53.2907C103.725 53.2907 103.573 53.3618 103.458 53.5011C103.342 53.6404 103.286 53.8745 103.286 54.2004" fill="white"/>
<path d="M106.849 52.2833H108.261V52.9263C108.475 52.6626 108.688 52.4759 108.905 52.3603C109.121 52.2477 109.385 52.1914 109.697 52.1914C110.118 52.1914 110.447 52.3159 110.685 52.5648C110.922 52.8167 111.041 53.2019 111.041 53.7234V56.2422H109.513V54.0612C109.513 53.8123 109.468 53.6375 109.373 53.5338C109.281 53.4301 109.151 53.3797 108.985 53.3797C108.801 53.3797 108.65 53.4508 108.537 53.5871C108.421 53.7264 108.365 53.9783 108.365 54.3368V56.2393H106.846V52.2773L106.849 52.2833Z" fill="white"/>
<path d="M111.759 58.6089V52.2823H113.18V52.866C113.379 52.6201 113.557 52.4541 113.723 52.3682C113.945 52.2497 114.189 52.1934 114.459 52.1934C114.99 52.1934 115.399 52.3949 115.69 52.8008C115.981 53.2068 116.123 53.7076 116.123 54.3032C116.123 54.9611 115.966 55.4648 115.648 55.8115C115.331 56.1582 114.933 56.3331 114.45 56.3331C114.215 56.3331 114.002 56.2945 113.809 56.2145C113.616 56.1345 113.444 56.016 113.293 55.8589V56.7361L111.759 58.6089ZM113.281 54.2736C113.281 54.5877 113.346 54.8218 113.48 54.9729C113.61 55.124 113.779 55.2011 113.981 55.2011C114.159 55.2011 114.307 55.127 114.426 54.9818C114.545 54.8366 114.607 54.5907 114.607 54.241C114.607 53.9209 114.545 53.6839 114.42 53.5328C114.295 53.3816 114.144 53.3076 113.963 53.3076C113.767 53.3076 113.607 53.3846 113.477 53.5357C113.346 53.6869 113.281 53.9358 113.281 54.2765" fill="white"/>
<path d="M116.464 54.2775C116.464 53.673 116.669 53.1751 117.075 52.784C117.484 52.3928 118.033 52.1973 118.728 52.1973C119.523 52.1973 120.122 52.4284 120.526 52.8877C120.852 53.2581 121.015 53.7145 121.015 54.2567C121.015 54.8672 120.813 55.365 120.407 55.7532C120.003 56.1444 119.446 56.337 118.731 56.337C118.093 56.337 117.579 56.174 117.185 55.851C116.701 55.451 116.461 54.9265 116.461 54.2775H116.464ZM117.983 54.2775C117.983 54.6301 118.054 54.8909 118.197 55.0628C118.339 55.2317 118.52 55.3176 118.737 55.3176C118.953 55.3176 119.134 55.2346 119.276 55.0687C119.416 54.9027 119.487 54.636 119.487 54.2656C119.487 53.9219 119.416 53.6641 119.274 53.4981C119.131 53.3292 118.956 53.2463 118.748 53.2463C118.529 53.2463 118.345 53.3322 118.2 53.5011C118.057 53.67 117.983 53.9308 117.983 54.2805" fill="white"/>
<path d="M121.32 55.0154L122.789 55.0036C122.851 55.1843 122.937 55.3117 123.05 55.3888C123.163 55.4658 123.311 55.5044 123.498 55.5044C123.703 55.5044 123.86 55.4599 123.973 55.374C124.059 55.3088 124.103 55.2288 124.103 55.131C124.103 55.0213 124.047 54.9384 123.931 54.8761C123.851 54.8347 123.631 54.7813 123.278 54.7191C122.75 54.6272 122.385 54.5413 122.181 54.4642C121.976 54.3872 121.804 54.2539 121.661 54.0672C121.519 53.8805 121.451 53.6671 121.451 53.4301C121.451 53.1693 121.528 52.9441 121.679 52.7544C121.831 52.5648 122.041 52.4255 122.305 52.3307C122.572 52.2388 122.928 52.1914 123.376 52.1914C123.848 52.1914 124.198 52.227 124.424 52.2981C124.649 52.3692 124.836 52.4818 124.987 52.6329C125.139 52.7841 125.254 53.1397 125.355 53.3975L123.922 53.3856C123.884 53.2612 123.821 53.1663 123.735 53.1071C123.617 53.0271 123.474 52.9885 123.305 52.9885C123.136 52.9885 123.008 53.0182 122.931 53.0804C122.854 53.1426 122.816 53.2137 122.816 53.3026C122.816 53.4004 122.866 53.4745 122.964 53.5219C123.062 53.5723 123.281 53.6167 123.614 53.6553C124.118 53.7145 124.495 53.7916 124.741 53.8953C124.987 53.996 125.177 54.1412 125.308 54.3309C125.438 54.5205 125.504 54.728 125.504 54.9532C125.504 55.1784 125.435 55.4036 125.296 55.6199C125.159 55.8362 124.94 56.0081 124.643 56.1355C124.346 56.263 123.94 56.3282 123.427 56.3282C122.703 56.3282 122.282 56.2185 121.976 56.0111C121.67 55.8037 121.415 55.3858 121.329 55.0065" fill="white"/>
<path d="M127.857 51.0719V52.2838H128.694V53.398H127.857V54.7997C127.857 54.9686 127.875 55.0812 127.908 55.1345C127.958 55.2205 128.044 55.2619 128.169 55.2619C128.281 55.2619 128.741 55.2708 128.741 55.2708L128.747 56.2783C128.37 56.3613 128.023 56.3376 127.7 56.3376C127.323 56.3376 127.041 56.2902 126.863 56.1924C126.685 56.0976 126.552 55.9494 126.466 55.7509C126.38 55.5553 126.335 55.2353 126.335 54.7908V53.398H125.777V52.2838H126.335L126.329 50.7637L127.857 51.0748V51.0719Z" fill="white"/>
<path d="M111.759 60.2957L113.293 58.4229V57.3027L111.759 59.1755V60.2957Z" fill="#1D1D1B"/>
<path d="M54.417 53.887C54.4467 54.1982 54.4467 54.6308 54.417 54.9479C54.3369 55.822 53.7109 56.4621 52.7793 56.4621C52.3847 56.4621 52.0079 56.3377 51.7558 56.225V57.4963C51.7558 57.7077 51.6529 57.8134 51.4472 57.8134C51.2415 57.8134 51.1397 57.7077 51.1416 57.4963V53.0751C51.1416 52.9802 51.1565 52.9121 51.2544 52.8469C51.5095 52.6691 52.0821 52.3965 52.7408 52.3965C53.6961 52.3965 54.331 53.004 54.4141 53.8929L54.417 53.887ZM51.7587 53.2855V55.5939C51.9219 55.7035 52.3313 55.8694 52.7526 55.8694C53.3608 55.8694 53.7584 55.499 53.8088 54.9123C53.8355 54.5804 53.8385 54.2485 53.8118 53.9581C53.7584 53.3773 53.3579 52.9891 52.7408 52.9891C52.4085 52.9891 51.9634 53.1284 51.7587 53.2884V53.2855Z" fill="white"/>
<path d="M58.7994 53.9187C58.8291 54.2239 58.8291 54.6299 58.7994 54.938C58.7164 55.8122 58.0518 56.4612 57.1172 56.4612C56.1827 56.4612 55.5211 55.8152 55.438 54.938C55.4113 54.6387 55.4113 54.2387 55.438 53.9394C55.524 53.0267 56.1856 52.3926 57.1172 52.3926C58.0488 52.3926 58.7134 53.0149 58.7994 53.9216V53.9187ZM56.0521 53.9453C56.0254 54.2387 56.0254 54.5736 56.0521 54.8966C56.1055 55.4744 56.5061 55.8655 57.1172 55.8655C57.7284 55.8655 58.1319 55.4744 58.1853 54.8966C58.212 54.5736 58.212 54.2506 58.1853 53.9542C58.1319 53.3764 57.7314 52.9882 57.1172 52.9882C56.5031 52.9882 56.1055 53.3705 56.0521 53.9453Z" fill="white"/>
<path d="M64.9644 52.4771C65.184 52.5304 65.2077 52.5512 65.2077 52.6193C65.2077 52.6519 65.1899 52.7497 65.1573 52.8712L64.2405 56.1012C64.1911 56.2948 64.017 56.3916 63.7183 56.3916C63.4197 56.3916 63.2446 56.2948 63.1932 56.1012L62.4189 53.1379C62.41 53.1142 62.3951 53.1083 62.3803 53.1083C62.3655 53.1083 62.3477 53.1172 62.3388 53.1379L61.5496 56.1012C61.5041 56.2948 61.3261 56.3916 61.0155 56.3916C60.5913 56.3916 60.5853 56.3916 60.5082 56.1012L59.5944 52.8712C59.5796 52.8001 59.541 52.6638 59.541 52.6223C59.541 52.5423 59.5677 52.5216 59.7813 52.4712C59.9208 52.4386 59.989 52.4297 60.0157 52.4297C60.1136 52.4297 60.1314 52.4949 60.17 52.6342C60.4637 53.7424 60.7189 54.6788 61.0096 55.7901C61.0185 55.8138 61.0274 55.8226 61.0541 55.8226C61.0778 55.8226 61.0867 55.8108 61.0956 55.7901C61.3597 54.7381 61.6 53.7691 61.87 52.7586C61.9234 52.5551 62.0915 52.4534 62.3744 52.4534C62.6612 52.4534 62.8313 52.5551 62.8847 52.7586C63.1843 53.8965 63.4157 54.7648 63.6738 55.7901C63.6827 55.8138 63.6887 55.8226 63.7154 55.8226C63.7391 55.8226 63.754 55.8108 63.7599 55.7901C64.0269 54.7292 64.288 53.7543 64.5847 52.6342C64.6173 52.4949 64.6381 52.4297 64.7271 52.4297C64.7686 52.4297 64.8547 52.4445 64.9644 52.4741V52.4771Z" fill="white"/>
<path d="M68.815 54.6833H66.5276V54.8077C66.5276 55.51 66.9904 55.8893 67.6639 55.8893C67.9992 55.8893 68.2662 55.8389 68.5243 55.7234C68.6281 55.673 68.6904 55.6434 68.7349 55.6434C68.8032 55.6434 68.8388 55.7026 68.9219 55.8775C68.9693 55.9842 68.9901 56.0345 68.9901 56.073C68.9901 56.1234 68.9515 56.156 68.8328 56.2153C68.5985 56.3309 68.1564 56.4583 67.6639 56.4583C66.5988 56.4583 66.0025 55.8004 65.9402 54.8374C65.9253 54.5588 65.9283 54.1677 65.9461 53.9306C66.0173 52.9735 66.6878 52.3867 67.6135 52.3867C68.6074 52.3867 69.2334 53.0505 69.2334 54.0047V54.2388C69.2334 54.6596 69.2067 54.6773 68.8121 54.6773L68.815 54.6833ZM68.6519 54.0758C68.6934 53.3853 68.2691 52.9497 67.6135 52.9497C66.8718 52.9497 66.5098 53.412 66.5276 54.1795H68.548C68.6519 54.1795 68.6459 54.1795 68.6519 54.0788V54.0758Z" fill="white"/>
<path d="M72.506 52.6356C72.506 52.6593 72.503 52.6919 72.4526 52.8608C72.3992 53.0386 72.3725 53.083 72.2953 53.083C72.2508 53.083 72.1737 53.0682 72.0521 53.0386C71.9542 53.0149 71.8385 52.9941 71.6575 52.9941C71.2213 52.9941 71.0018 53.1808 71.0018 53.6549V56.1174C71.0018 56.3031 70.9019 56.396 70.7021 56.396C70.5024 56.396 70.3985 56.3031 70.3906 56.1174V53.5838C70.3906 52.84 70.8238 52.3926 71.6159 52.3926C71.8681 52.3926 72.1203 52.4311 72.2864 52.4755C72.3992 52.5081 72.509 52.5437 72.509 52.6385L72.506 52.6356Z" fill="white"/>
<path d="M75.9566 54.6833H73.6692V54.8077C73.6692 55.51 74.132 55.8893 74.8055 55.8893C75.1408 55.8893 75.4078 55.8389 75.6659 55.7234C75.7697 55.673 75.832 55.6434 75.8765 55.6434C75.9448 55.6434 75.9804 55.7026 76.0634 55.8775C76.1109 55.9842 76.1317 56.0345 76.1317 56.073C76.1317 56.1234 76.0931 56.156 75.9744 56.2153C75.7401 56.3309 75.298 56.4583 74.8055 56.4583C73.7404 56.4583 73.1441 55.8004 73.0818 54.8374C73.0669 54.5588 73.0699 54.1677 73.0877 53.9306C73.1589 52.9735 73.8294 52.3867 74.7551 52.3867C75.749 52.3867 76.375 53.0505 76.375 54.0047V54.2388C76.375 54.6596 76.3483 54.6773 75.9537 54.6773L75.9566 54.6833ZM75.7935 54.0758C75.835 53.3853 75.4107 52.9497 74.7551 52.9497C74.0134 52.9497 73.6514 53.412 73.6692 54.1795H75.6896C75.7935 54.1795 75.7875 54.1795 75.7935 54.0788V54.0758Z" fill="white"/>
<path d="M78.9733 52.3909C79.3798 52.3909 79.7863 52.5124 80.0533 52.625V51.3952C80.0533 51.1838 80.1551 51.0781 80.3589 51.0781C80.5626 51.0781 80.6654 51.1838 80.6674 51.3952V55.7542C80.6674 55.8579 80.6496 55.932 80.5428 56.0031C80.3618 56.1394 79.7418 56.4624 79.0505 56.4624C78.0507 56.4624 77.4632 55.8727 77.389 54.9393C77.3653 54.6755 77.3623 54.1451 77.389 53.8844C77.4721 52.942 78.021 52.3938 78.9763 52.3938L78.9733 52.3909ZM79.0623 55.8579C79.4273 55.8579 79.8901 55.686 80.0503 55.5586V53.2502C79.8723 53.1406 79.4362 52.9835 78.9822 52.9835C78.3473 52.9835 78.0536 53.3006 77.9972 53.9199C77.9735 54.1422 77.9676 54.64 77.9972 54.9008C78.0566 55.5468 78.4037 55.8579 79.0623 55.8579Z" fill="white"/>
<path d="M87.2774 54.9363C87.2033 55.8727 86.6158 56.4624 85.6101 56.4624C84.9247 56.4624 84.3135 56.1364 84.1237 56.0001C84.0169 55.932 83.9961 55.8609 83.9961 55.7512V51.3952C83.9961 51.1838 84.0989 51.0781 84.3046 51.0781C84.5104 51.0781 84.6102 51.1838 84.6043 51.3952V52.625C84.8713 52.5124 85.2837 52.3909 85.6872 52.3909C86.6425 52.3909 87.1944 52.9391 87.2745 53.8784C87.2982 54.1451 87.2982 54.6756 87.2745 54.9334L87.2774 54.9363ZM86.6722 53.9288C86.6218 53.3124 86.3102 52.9865 85.6753 52.9865C85.2244 52.9865 84.7853 53.1435 84.6073 53.2532V55.5527C84.7734 55.6831 85.2392 55.8609 85.6012 55.8609C86.2568 55.8609 86.6099 55.5468 86.6722 54.9037C86.69 54.64 86.6841 54.157 86.6722 53.9318V53.9288Z" fill="white"/>
<path d="M91.2804 52.5184C91.4465 52.5777 91.494 52.6074 91.494 52.6785C91.494 52.72 91.4703 52.7851 91.4228 52.8977L90.0165 56.3144C89.7495 56.9574 89.343 57.5057 88.9751 57.7457C88.8861 57.802 88.806 57.8464 88.7497 57.8464C88.6844 57.8464 88.6547 57.8138 88.5509 57.6597C88.4381 57.4938 88.4203 57.4671 88.4203 57.4197C88.4203 57.3664 88.4589 57.3338 88.5628 57.2656C88.8891 57.0819 89.1799 56.7441 89.4202 56.1425L87.9931 52.9066C87.9397 52.7763 87.9189 52.7229 87.9189 52.6814C87.9189 52.6192 87.9842 52.5866 88.1444 52.5244C88.2839 52.471 88.3729 52.4414 88.4085 52.4414C88.4826 52.4414 88.5034 52.5007 88.5598 52.6459C89.257 54.2698 89.4024 54.6372 89.7258 55.3958C89.7347 55.4106 89.7406 55.4284 89.7584 55.4284C89.7762 55.4284 89.7851 55.4106 89.791 55.3958C90.0432 54.7409 90.2687 54.166 90.8739 52.6311C90.9244 52.5066 90.9451 52.4473 91.0134 52.4473C91.0519 52.4473 91.1143 52.4651 91.2804 52.5214V52.5184Z" fill="white"/>
</svg>
