<svg width="42" height="41" viewBox="0 0 42 41" fill="none" xmlns="http://www.w3.org/2000/svg">
<path d="M37.5063 41L4.49372 41C2.01151 41 -5.16123e-07 39.0362 -4.84083e-07 36.6129L-5.79636e-08 4.38399C-2.59641e-08 1.96376 2.01151 2.65954e-08 4.49372 5.94144e-08L37.5063 4.95894e-07C39.9885 5.28713e-07 42 1.96376 42 4.38706L42 36.6129C42 39.0362 39.9885 41 37.5063 41V41Z" fill="#0E969E"/>
<path d="M29.9905 8L25.6582 13.1186C25.6582 13.1186 19.1044 13.1154 18.0854 13.1154C17.2437 13.1154 16.6076 13.293 16.1835 13.6482C15.7595 14.0034 15.5443 14.4411 15.5443 14.9548C15.5443 15.3259 15.7215 15.6621 16.0759 15.9602C16.4146 16.2678 17.2247 16.5564 18.5 16.826C21.6551 17.511 23.9177 18.1992 25.2816 18.8969C26.6519 19.5977 27.6424 20.4635 28.2658 21.4974C28.8892 22.5313 29.1994 23.692 29.1994 24.9701C29.1994 26.4733 28.7848 27.8592 27.9557 29.1277C27.1297 30.3963 25.9684 31.3604 24.481 32.0169C22.9937 32.6702 21.1171 33 18.8544 33C14.8797 33 12.1266 32.2357 10.5949 30.7007C9.06646 29.1626 8.19937 27.2091 8 24.8432L14.8671 24.4151C15.0158 25.5346 15.3196 26.3877 15.7785 26.9744C16.519 27.9258 17.5823 28.3983 18.9652 28.3983C19.9968 28.3983 20.788 28.1541 21.3481 27.6721C21.9051 27.1869 22.1835 26.6224 22.1835 25.9849C22.1835 25.3475 21.9177 24.8337 21.3924 24.3516C20.8608 23.8728 19.6266 23.4193 17.6899 22.9943C14.5222 22.2807 12.2627 21.3293 10.9146 20.1464C9.5538 18.9635 8.87342 17.4539 8.87342 15.6208C8.87342 14.4125 9.22152 13.274 9.92089 12.2021C10.6171 11.1302 11.7437 9.83306 13.1424 9.21464C14.538 8.60256 16.3418 8.01269 18.7785 8.01269L30 8.01269L29.9905 8Z" fill="white"/>
<path d="M31.9552 8.0031L28 13C30.845 13 32.0419 13 32.0419 13L36 8L31.9552 8L31.9552 8.0031Z" fill="black"/>
</svg>
